#!OML:ASF C:\Vicon Data\Big\jianyuan-13\jianyuan\Session 1\Capture.male.ASF
:FULLY-SPECIFIED
:DEGREES
126
root -7.861322 17.359364 -14.506472 5.364824 3.281310 -1.612596
lowerback -13.961700 1.812062 1.314725 
upperback 1.472221 2.183973 0.348899 
thorax 9.480902 1.117322 0.112143 
lowerneck -5.943677 -1.560676 2.998057 
upperneck 11.153915 -2.314441 -2.922296 
head 4.462913 -1.267874 -1.601889 
rclavicle 0.000000 0.000000 
rhumerus -38.338918 -15.612551 -79.633047 
rradius 38.788587 
rwrist 24.047234 
rhand -18.835489 -20.040774 
rfingers 0.000000 
rthumb 7.463920 -49.889063 
lclavicle 0.000000 0.000000 
lhumerus -46.723638 38.868832 62.708315 
lradius 24.587081 
lwrist -63.058432 
lhand -19.001192 0.224791 
lfingers 0.000000 
lthumb 7.303973 30.078729 
rfemur -0.628762 5.292457 27.749882 
rtibia 22.782323 
rfoot -25.082141 -2.487506 
rtoes -27.890858 
lfemur -28.194612 -3.765299 -15.207770 
ltibia 9.462503 
lfoot -5.806635 11.112553 
ltoes -35.693004 
127
root -7.845325 17.361928 -14.443041 5.448105 3.119517 -1.367482
lowerback -14.043965 1.781203 1.001850 
upperback 1.402404 2.204947 0.255777 
thorax 9.443278 1.113846 0.194337 
lowerneck -5.799529 -1.524848 3.426185 
upperneck 10.844346 -2.273223 -3.252676 
head 4.570530 -1.240463 -1.862094 
rclavicle 0.000000 0.000000 
rhumerus -38.326944 -15.619187 -79.719658 
rradius 38.646010 
rwrist 24.139023 
rhand -18.929807 -20.017338 
rfingers 0.000000 
rthumb 7.372908 -49.868814 
lclavicle 0.000000 0.000000 
lhumerus -47.116143 39.016992 62.297395 
lradius 24.568030 
lwrist -63.188180 
lhand -19.020127 -0.020076 
lfingers 0.000000 
lthumb 7.285683 29.834473 
rfemur -0.421536 5.547930 27.478337 
rtibia 22.701949 
rfoot -24.964513 -2.710491 
rtoes -27.925588 
lfemur -28.041599 -3.766160 -15.478512 
ltibia 9.124106 
lfoot -4.545335 11.624616 
ltoes -33.681391 
128
root -7.829522 17.362343 -14.380742 5.481683 3.009732 -1.265957
lowerback -14.101224 1.835550 0.853385 
upperback 1.398142 2.304300 0.233819 
thorax 9.467192 1.154267 0.278265 
lowerneck -5.950040 -1.555707 3.284346 
upperneck 11.290349 -2.288556 -3.305754 
head 4.273733 -1.270610 -1.680553 
rclavicle 0.000000 0.000000 
rhumerus -38.271844 -15.947532 -79.563569 
rradius 38.487670 
rwrist 24.481649 
rhand -18.932078 -19.856207 
rfingers 0.000000 
rthumb 7.370687 -49.707838 
lclavicle 0.000000 0.000000 
lhumerus -47.272956 39.106045 62.166950 
lradius 24.498508 
lwrist -63.557069 
lhand -18.998851 0.030234 
lfingers 0.000000 
lthumb 7.306225 29.884076 
rfemur -0.224409 5.728442 27.383988 
rtibia 22.721772 
rfoot -24.885292 -2.980022 
rtoes -27.977431 
lfemur -27.823918 -3.792409 -15.582169 
ltibia 8.830382 
lfoot -3.595851 12.177560 
ltoes -32.081890 
129
root -7.810259 17.365025 -14.313740 5.520861 2.780928 -1.133763
lowerback -14.174670 1.900774 0.733909 
upperback 1.368131 2.417453 0.172674 
thorax 9.474882 1.204211 0.306908 
lowerneck -6.224470 -1.596800 2.659732 
upperneck 11.592994 -2.354553 -2.736728 
head 4.425509 -1.300291 -1.414600 
rclavicle 0.000000 0.000000 
rhumerus -38.261970 -15.879413 -79.646515 
rradius 38.426409 
rwrist 24.293037 
rhand -19.079298 -19.986871 
rfingers 0.000000 
rthumb 7.228617 -49.843366 
lclavicle 0.000000 0.000000 
lhumerus -47.538138 39.234067 61.908847 
lradius 24.463934 
lwrist -63.790224 
lhand -19.007388 -0.150965 
lfingers 0.000000 
lthumb 7.297988 29.703138 
rfemur -0.018992 5.722048 27.171990 
rtibia 22.732608 
rfoot -24.775910 -2.972120 
rtoes -28.073008 
lfemur -27.633444 -3.710566 -15.739276 
ltibia 8.799096 
lfoot -3.260103 12.557198 
ltoes -30.254928 
130
root -7.791927 17.361572 -14.250414 5.527301 2.630182 -1.103885
lowerback -14.213589 1.941807 0.713986 
upperback 1.360098 2.480307 0.118076 
thorax 9.490510 1.234823 0.274676 
lowerneck -6.449785 -1.599605 2.520566 
upperneck 11.792889 -2.364007 -2.616733 
head 4.527576 -1.305862 -1.360842 
rclavicle 0.000000 0.000000 
rhumerus -38.228186 -15.977683 -79.719467 
rradius 38.330784 
rwrist 24.374324 
rhand -19.107289 -19.984720 
rfingers 0.000000 
rthumb 7.201609 -49.842185 
lclavicle 0.000000 0.000000 
lhumerus -47.623009 39.199565 61.827904 
lradius 24.415559 
lwrist -63.607562 
lhand -18.959046 0.108275 
lfingers 0.000000 
lthumb 7.344681 29.960836 
rfemur 0.213193 5.749795 27.109368 
rtibia 22.722242 
rfoot -24.704527 -3.064694 
rtoes -28.266642 
lfemur -27.614148 -3.681615 -15.749521 
ltibia 9.031592 
lfoot -3.113846 13.057632 
ltoes -28.252545 
131
root -7.770587 17.360743 -14.177888 5.515694 2.366917 -1.042317
lowerback -14.297088 2.026791 0.713427 
upperback 1.337268 2.602394 0.022635 
thorax 9.518888 1.296154 0.202250 
lowerneck -6.334626 -1.557013 3.280437 
upperneck 11.658845 -2.300911 -3.330886 
head 4.450137 -1.282800 -1.698024 
rclavicle 0.000000 0.000000 
rhumerus -38.278943 -16.139095 -79.768019 
rradius 38.281242 
rwrist 24.503303 
rhand -18.976350 -19.921204 
rfingers 0.000000 
rthumb 7.327986 -49.774317 
lclavicle 0.000000 0.000000 
lhumerus -47.941428 39.321697 61.410386 
lradius 24.375313 
lwrist -63.795765 
lhand -19.022289 -0.035535 
lfingers 0.000000 
lthumb 7.283607 29.819110 
rfemur 0.492877 5.648173 26.940147 
rtibia 22.751704 
rfoot -24.602183 -2.961395 
rtoes -28.714488 
lfemur -27.521093 -3.568672 -15.847267 
ltibia 9.412088 
lfoot -3.147773 13.718750 
ltoes -25.912050 
132
root -7.752287 17.360610 -14.114876 5.592119 2.276023 -1.022966
lowerback -14.356200 2.067068 0.734407 
upperback 1.273505 2.661111 -0.054470 
thorax 9.488211 1.328490 0.121529 
lowerneck -6.233226 -1.561956 3.576808 
upperneck 11.494902 -2.303365 -3.583146 
head 4.375807 -1.283535 -1.820617 
rclavicle 0.000000 0.000000 
rhumerus -38.296237 -16.052460 -79.939497 
rradius 38.237533 
rwrist 24.304822 
rhand -19.026937 -20.051179 
rfingers 0.000000 
rthumb 7.279183 -49.905914 
lclavicle 0.000000 0.000000 
lhumerus -48.114893 39.322512 61.189023 
lradius 24.375953 
lwrist -63.723335 
lhand -18.819284 -0.015317 
lfingers 0.000000 
lthumb 7.479627 29.832461 
rfemur 0.628583 5.663048 26.876517 
rtibia 22.778692 
rfoot -24.416613 -3.020523 
rtoes -28.750464 
lfemur -27.678186 -3.594970 -15.836809 
ltibia 9.959555 
lfoot -2.900247 14.476331 
ltoes -25.233954 
133
root -7.733406 17.364200 -14.049316 5.682811 2.148390 -1.012049
lowerback -14.464970 2.078181 0.716690 
upperback 1.190013 2.687451 -0.120256 
thorax 9.461839 1.343320 0.069068 
lowerneck -6.070480 -1.563760 3.505942 
upperneck 11.368357 -2.306754 -3.465666 
head 4.312247 -1.280001 -1.769301 
rclavicle 0.000000 0.000000 
rhumerus -38.364760 -16.050867 -80.037862 
rradius 38.214320 
rwrist 24.293207 
rhand -18.893829 -19.985882 
rfingers 0.000000 
rthumb 7.407662 -49.836154 
lclavicle 0.000000 0.000000 
lhumerus -48.401799 39.319187 60.877660 
lradius 24.341082 
lwrist -63.818482 
lhand -18.866748 0.173146 
lfingers 0.000000 
lthumb 7.433796 30.022517 
rfemur 0.725837 5.712404 26.810707 
rtibia 22.879765 
rfoot -24.303784 -3.071213 
rtoes -28.831824 
lfemur -27.821203 -3.448365 -15.889052 
ltibia 10.458425 
lfoot -2.278426 15.210167 
ltoes -24.174754 
134
root -7.715677 17.365172 -13.989936 5.711362 2.172878 -1.039509
lowerback -14.465393 2.062902 0.714995 
upperback 1.149874 2.670086 -0.134960 
thorax 9.418557 1.336025 0.049460 
lowerneck -6.144603 -1.589049 3.361205 
upperneck 11.398048 -2.338223 -3.362357 
head 4.335797 -1.295593 -1.716854 
rclavicle 0.000000 0.000000 
rhumerus -38.355795 -16.056943 -80.127689 
rradius 38.224583 
rwrist 24.035323 
rhand -18.920934 -20.017712 
rfingers 0.000000 
rthumb 7.381466 -49.868982 
lclavicle 0.000000 0.000000 
lhumerus -48.596555 39.380317 60.697478 
lradius 24.280164 
lwrist -63.735644 
lhand -19.134024 0.203863 
lfingers 0.000000 
lthumb 7.175765 30.062165 
rfemur 0.842037 5.750284 26.837367 
rtibia 22.988104 
rfoot -24.200370 -3.248732 
rtoes -28.839919 
lfemur -27.977071 -3.156825 -16.049284 
ltibia 10.974436 
lfoot -1.336947 15.490757 
ltoes -24.022641 
135
root -7.691244 17.368626 -13.921161 5.768123 2.034516 -0.939297
lowerback -14.566397 2.130472 0.667072 
upperback 1.054032 2.782017 -0.246796 
thorax 9.376067 1.392076 -0.016667 
lowerneck -6.210591 -1.614366 3.217638 
upperneck 11.606556 -2.393548 -3.121607 
head 4.413948 -1.318541 -1.626111 
rclavicle 0.000000 0.000000 
rhumerus -38.552662 -15.888057 -80.300151 
rradius 38.289178 
rwrist 23.674237 
rhand -18.889262 -20.117195 
rfingers 0.000000 
rthumb 7.412025 -49.967338 
lclavicle 0.000000 0.000000 
lhumerus -49.091828 39.531003 60.058708 
lradius 24.296336 
lwrist -64.391224 
lhand -18.922569 -0.040723 
lfingers 0.000000 
lthumb 7.379923 29.810558 
rfemur 0.989024 5.707657 26.626664 
rtibia 23.104769 
rfoot -24.065511 -3.203595 
rtoes -29.032590 
lfemur -28.048025 -2.761064 -16.389359 
ltibia 11.420881 
lfoot -1.032436 15.295770 
ltoes -24.536929 
136
root -7.669858 17.373745 -13.855532 5.773983 1.926647 -0.794404
lowerback -14.601482 2.131233 0.506609 
upperback 1.055411 2.816241 -0.299174 
thorax 9.392886 1.401903 0.026634 
lowerneck -6.150577 -1.625794 3.414778 
upperneck 11.404164 -2.394272 -3.355852 
head 4.336187 -1.320502 -1.726634 
rclavicle 0.000000 0.000000 
rhumerus -38.509460 -15.986193 -80.255684 
rradius 38.249739 
rwrist 24.048511 
rhand -18.690920 -19.939766 
rfingers 0.000000 
rthumb 7.603488 -49.783119 
lclavicle 0.000000 0.000000 
lhumerus -49.352538 39.768237 59.731076 
lradius 24.251627 
lwrist -64.720105 
lhand -18.900775 -0.224281 
lfingers 0.000000 
lthumb 7.400941 29.626224 
rfemur 1.169583 5.723750 26.408404 
rtibia 23.232298 
rfoot -23.884797 -3.270793 
rtoes -29.460341 
lfemur -28.090433 -2.763303 -16.586803 
ltibia 11.852854 
lfoot -1.556202 15.046323 
ltoes -23.474121 
